<svg width="176" height="64" viewBox="0 0 176 64" fill="none" xmlns="http://www.w3.org/2000/svg">
<path d="M61.724 15.9535H67.8644L69.2131 19.394H72.8926L66.2553 2.57617H63.5342L56.6484 19.394H60.2688L61.724 15.9535ZM64.6463 7.3797L66.8469 13.3374H62.706L64.6463 7.3797Z" fill="#0668B8"/>
<path d="M78.8534 19.7572C79.8401 19.7696 80.8138 19.5463 81.681 19.1087V16.1628C81.3987 16.4759 81.0482 16.7299 80.6526 16.908C80.2569 17.0861 79.8252 17.1843 79.3858 17.1961C78.9656 17.1913 78.5509 17.1063 78.1676 16.9464C77.7842 16.7864 77.4404 16.5549 77.1574 16.2663C76.8745 15.9776 76.6585 15.638 76.5228 15.2685C76.3871 14.899 76.3347 14.5075 76.3688 14.1183C76.3332 13.7332 76.3802 13.3454 76.5069 12.9773C76.6337 12.6092 76.8377 12.268 77.1073 11.9737C77.3769 11.6793 77.7066 11.4375 78.0773 11.2622C78.4481 11.0869 78.8526 10.9817 79.2674 10.9526C79.7176 10.9621 80.1606 11.0589 80.5681 11.2369C80.9756 11.4148 81.3386 11.6699 81.6337 11.9859V9.051C80.8244 8.60626 79.9001 8.37447 78.9598 8.38049C78.1616 8.37983 77.3716 8.52927 76.6372 8.81979C75.9028 9.11031 75.2392 9.53591 74.6866 10.071C74.1339 10.606 73.7034 11.2395 73.4212 11.9331C73.139 12.6268 73.0108 13.3664 73.0443 14.1073C73.0223 14.8337 73.1555 15.5568 73.4362 16.235C73.717 16.9132 74.1397 17.533 74.6799 18.0584C75.2202 18.5838 75.8672 19.0045 76.5835 19.2961C77.2999 19.5877 78.0714 19.7444 78.8534 19.7572Z" fill="#0668B8"/>
<path d="M88.2001 19.7572C88.7931 19.7682 89.3812 19.6542 89.9201 19.4239C90.459 19.1935 90.9348 18.8527 91.3116 18.4271V18.4271V19.3944H94.648V8.73218H91.4181V9.73246C91.0203 9.30551 90.5278 8.96361 89.9744 8.73023C89.4209 8.49685 88.8197 8.37751 88.2119 8.38042C84.911 8.38042 82.9707 11.1834 82.9707 14.0193C82.9707 16.8553 84.8282 19.7572 88.2001 19.7572ZM88.9454 11.0735C89.6086 10.9651 90.2917 11.0491 90.9017 11.3142C91.5117 11.5793 92.019 12.0125 92.3546 12.5549C92.6901 13.0973 92.8377 13.7226 92.7772 14.3458C92.7167 14.9689 92.4511 15.5596 92.0164 16.0374C91.5818 16.5153 90.9992 16.8572 90.348 17.0166C89.6969 17.1759 89.0086 17.1451 88.377 16.9281C87.7453 16.7112 87.201 16.3188 86.8179 15.8042C86.4348 15.2897 86.2317 14.678 86.2361 14.0523C86.186 13.3268 86.4402 12.6114 86.9452 12.0561C87.4503 11.5008 88.1671 11.1487 88.9454 11.0735V11.0735Z" fill="#0668B8"/>
<path d="M101.427 19.7573C102.021 19.7698 102.61 19.6542 103.148 19.4196C103.686 19.185 104.158 18.8378 104.527 18.4053V19.3946H107.804V0.960938H104.527V9.75455C104.144 9.32806 103.665 8.98563 103.123 8.75186C102.58 8.51809 101.989 8.39879 101.392 8.40254C98.079 8.40254 96.1387 11.2055 96.1387 14.0415C96.1387 16.8774 98.0671 19.7573 101.427 19.7573ZM102.184 11.0736C102.845 10.9699 103.523 11.0573 104.128 11.3241C104.734 11.5908 105.236 12.024 105.567 12.5648C105.898 13.1056 106.042 13.728 105.98 14.3475C105.917 14.967 105.652 15.5537 105.218 16.0281C104.785 16.5025 104.205 16.8416 103.557 16.9995C102.909 17.1574 102.225 17.1264 101.597 16.9107C100.969 16.6951 100.427 16.3052 100.045 15.7939C99.6637 15.2826 99.4605 14.6746 99.4632 14.0524C99.4073 13.3239 99.6609 12.604 100.17 12.0471C100.678 11.4902 101.402 11.1408 102.184 11.0736Z" fill="#0668B8"/>
<path d="M115.117 19.7569C116.253 19.8029 117.375 19.5067 118.315 18.9125C119.255 18.3183 119.963 17.4578 120.335 16.4593L117.318 16.0086C117.154 16.43 116.855 16.7947 116.462 17.0541C116.068 17.3134 115.599 17.4548 115.117 17.4595C113.401 17.4595 112.845 15.9426 112.845 14.5906H120.406V14.2169C120.406 10.9962 118.726 8.41309 114.951 8.41309C111.177 8.41309 109.379 10.9632 109.379 14.2059C109.379 17.4485 111.556 19.7569 115.117 19.7569ZM115.117 10.5126C115.711 10.5569 116.266 10.8079 116.669 11.2155C117.073 11.6231 117.296 12.1571 117.294 12.711H112.916C112.915 12.1501 113.145 11.61 113.559 11.2013C113.972 10.7926 114.538 10.5462 115.141 10.5126H115.117Z" fill="#0668B8"/>
<path d="M125.209 14.1734C125.209 13.0742 125.126 10.8208 126.948 10.8208C128.77 10.8208 128.522 12.9532 128.522 13.9975V19.3946H131.787V14.1624C131.787 13.0632 131.787 10.8098 133.55 10.8098C135.313 10.8098 135.1 12.7444 135.1 13.7886V19.3946H138.424V12.7994C138.424 10.4691 137.691 8.40257 134.768 8.40257C134.091 8.38079 133.418 8.52094 132.815 8.80962C132.213 9.0983 131.7 9.52585 131.326 10.0514C130.991 9.52047 130.506 9.08439 129.925 8.79001C129.343 8.49564 128.686 8.35409 128.025 8.38058C127.479 8.38269 126.941 8.50182 126.452 8.72869C125.964 8.95556 125.538 9.28406 125.209 9.68863V9.68863V8.73233H121.932V19.3946H125.209V14.1734Z" fill="#0668B8"/>
<path d="M144.162 8.72168H140.885V19.4059H144.162V8.72168Z" fill="#0668B8"/>
<path d="M142.53 6.05023C142.785 6.05023 143.037 6.00361 143.273 5.91301C143.508 5.82242 143.722 5.68963 143.902 5.52223C144.082 5.35483 144.225 5.1561 144.323 4.93738C144.42 4.71867 144.47 4.48426 144.47 4.24753C144.47 4.01079 144.42 3.77637 144.323 3.55765C144.225 3.33894 144.082 3.14022 143.902 2.97283C143.722 2.80543 143.508 2.67264 143.273 2.58204C143.037 2.49145 142.785 2.44482 142.53 2.44482C142.275 2.44482 142.023 2.49145 141.788 2.58204C141.552 2.67264 141.338 2.80543 141.158 2.97283C140.978 3.14022 140.835 3.33894 140.738 3.55765C140.64 3.77637 140.59 4.01079 140.59 4.24753C140.59 4.48426 140.64 4.71867 140.738 4.93738C140.835 5.1561 140.978 5.35483 141.158 5.52223C141.338 5.68963 141.552 5.82242 141.788 5.91301C142.023 6.00361 142.275 6.05023 142.53 6.05023V6.05023Z" fill="#0668B8"/>
<path d="M154.289 18.4271V19.3944H157.519V8.73214H154.289V9.73242C153.888 9.30632 153.393 8.96513 152.838 8.73189C152.283 8.49865 151.681 8.37879 151.071 8.38039C147.77 8.38039 145.83 11.1834 145.83 14.0193C145.83 16.8552 147.759 19.7571 151.119 19.7571C151.713 19.7666 152.302 19.652 152.843 19.4218C153.384 19.1916 153.862 18.8517 154.242 18.4271H154.289ZM151.923 17.0641C151.264 17.1652 150.588 17.0763 149.985 16.8092C149.382 16.5422 148.882 16.1098 148.552 15.5705C148.222 15.0312 148.078 14.4109 148.139 13.7931C148.2 13.1753 148.464 12.5897 148.894 12.1154C149.325 11.6411 149.901 11.3007 150.546 11.1403C151.191 10.9798 151.874 11.007 152.502 11.2181C153.13 11.4292 153.673 11.814 154.058 12.3208C154.443 12.8276 154.652 13.4319 154.656 14.0523C154.715 14.7937 154.455 15.5266 153.935 16.0909C153.414 16.6553 152.673 17.0051 151.876 17.0641H151.923Z" fill="#0668B8"/>
<path d="M73.3774 22.5928H69.9464V33.6178H69.899L60.5998 22.1641H58.1152V38.9928H61.5581V27.8579H61.6054L70.9047 39.3226H73.3774V22.5928Z" fill="#0668B8"/>
<path d="M83.3987 38.0807V39.059H86.6286V28.3747H83.3987V29.2871C82.9961 28.8626 82.501 28.5226 81.9462 28.2895C81.3914 28.0564 80.7896 27.9356 80.1807 27.9351C76.8798 27.9351 74.9395 30.738 74.9395 33.574C74.9395 36.4099 76.8561 39.3118 80.228 39.3118C80.8217 39.3385 81.4144 39.2418 81.9629 39.0288C82.5114 38.8159 83.0019 38.492 83.3987 38.0807V38.0807ZM78.3113 33.6839C78.2417 33.3142 78.26 32.9348 78.365 32.5724C78.4699 32.21 78.659 31.8733 78.9188 31.586C79.1787 31.2987 79.5031 31.0677 79.8692 30.9092C80.2354 30.7507 80.6345 30.6685 81.0384 30.6685C81.4423 30.6685 81.8414 30.7507 82.2076 30.9092C82.5737 31.0677 82.8981 31.2987 83.158 31.586C83.4179 31.8733 83.6069 32.21 83.7118 32.5724C83.8168 32.9348 83.8351 33.3142 83.7655 33.6839C83.8351 34.0536 83.8168 34.4329 83.7118 34.7953C83.6069 35.1577 83.4179 35.4944 83.158 35.7818C82.8981 36.0691 82.5737 36.3001 82.2076 36.4586C81.8414 36.6171 81.4423 36.6992 81.0384 36.6992C80.6345 36.6992 80.2354 36.6171 79.8692 36.4586C79.5031 36.3001 79.1787 36.0691 78.9188 35.7818C78.659 35.4944 78.4699 35.1577 78.365 34.7953C78.26 34.4329 78.2417 34.0536 78.3113 33.6839V33.6839Z" fill="#0668B8"/>
<path d="M94.4476 30.5404C94.9036 30.556 95.3508 30.6622 95.759 30.8518C96.1671 31.0414 96.5268 31.31 96.8138 31.6396V28.6938C96.0082 28.2505 95.0881 28.0187 94.1518 28.0233C93.3487 28.0152 92.5521 28.1591 91.8108 28.4463C91.0694 28.7335 90.3988 29.1579 89.8398 29.6937C89.2808 30.2296 88.845 30.8656 88.5592 31.563C88.2733 32.2604 88.1433 33.0045 88.1771 33.7501C88.1551 34.4764 88.2883 35.1996 88.5691 35.8778C88.8498 36.556 89.2726 37.1757 89.8128 37.7012C90.353 38.2266 91 38.6473 91.7164 38.9389C92.4327 39.2305 93.2042 39.3872 93.9862 39.4C94.9736 39.4179 95.9488 39.1943 96.8138 38.7515V35.8166C96.5295 36.1266 96.1782 36.3778 95.7829 36.5539C95.3875 36.73 94.9568 36.827 94.5186 36.8389C94.0989 36.8356 93.6845 36.752 93.3012 36.5933C92.9179 36.4345 92.5739 36.2041 92.2908 35.9163C92.0077 35.6285 91.7915 35.2895 91.6557 34.9206C91.5199 34.5517 91.4675 34.1607 91.5017 33.7721C91.4561 33.3783 91.497 32.9801 91.6221 32.6015C91.7472 32.2229 91.9537 31.8719 92.2292 31.5697C92.5047 31.2675 92.8433 31.0204 93.2247 30.8435C93.606 30.6666 94.0221 30.5635 94.4476 30.5404Z" fill="#0668B8"/>
<path d="M100.706 22.0327C100.322 22.0327 99.947 22.1384 99.628 22.3365C99.3089 22.5346 99.0602 22.8162 98.9133 23.1456C98.7665 23.475 98.728 23.8374 98.8029 24.1871C98.8778 24.5368 99.0626 24.858 99.3339 25.1101C99.6053 25.3622 99.951 25.5339 100.327 25.6035C100.704 25.673 101.094 25.6373 101.448 25.5009C101.803 25.3644 102.106 25.1334 102.319 24.8369C102.532 24.5405 102.646 24.1919 102.646 23.8354C102.643 23.3582 102.438 22.9013 102.075 22.5639C101.711 22.2265 101.22 22.0356 100.706 22.0327V22.0327Z" fill="#0668B8"/>
<path d="M102.34 28.3198H99.0625V39.0041H102.34V28.3198Z" fill="#0668B8"/>
<path d="M110.03 27.9682C108.815 27.953 107.622 28.2736 106.604 28.8894C105.585 29.5053 104.787 30.3885 104.31 31.4268C103.833 32.4651 103.699 33.6117 103.925 34.721C104.151 35.8302 104.727 36.8519 105.58 37.6564C106.432 38.4608 107.523 39.0117 108.713 39.2389C109.903 39.4662 111.14 39.3596 112.264 38.9326C113.389 38.5057 114.352 37.7778 115.031 36.8413C115.709 35.9048 116.073 34.802 116.075 33.6731C116.121 32.9204 115.996 32.1672 115.709 31.462C115.423 30.7567 114.981 30.1149 114.411 29.5777C113.842 29.0405 113.158 28.6198 112.404 28.3426C111.649 28.0655 110.84 27.938 110.03 27.9682V27.9682ZM110.03 36.6519C109.369 36.7556 108.691 36.6682 108.086 36.4014C107.481 36.1347 106.978 35.7016 106.647 35.1607C106.316 34.6199 106.172 33.9976 106.234 33.3781C106.297 32.7586 106.563 32.1719 106.996 31.6975C107.429 31.2231 108.009 30.8839 108.657 30.7261C109.305 30.5682 109.989 30.5992 110.617 30.8148C111.245 31.0305 111.787 31.4204 112.169 31.9316C112.55 32.4429 112.754 33.0509 112.751 33.6731C112.807 34.4016 112.553 35.1215 112.045 35.6784C111.536 36.2353 110.813 36.5848 110.03 36.6519V36.6519Z" fill="#0668B8"/>
<path d="M117.672 28.3199V39.0042H120.949V33.6841C120.949 32.398 120.949 30.3865 122.913 30.3865C124.877 30.3865 124.7 32.0352 124.7 33.3213V38.9822H127.977V32.4749C127.977 29.9907 127.089 27.9682 123.99 27.9682C123.41 27.9356 122.831 28.0406 122.308 28.2733C121.784 28.506 121.333 28.8587 120.996 29.2982V29.2982V28.3199H117.672Z" fill="#0668B8"/>
<path d="M137.963 29.2871C137.561 28.8626 137.065 28.5226 136.511 28.2895C135.956 28.0564 135.354 27.9356 134.745 27.9351C131.444 27.9351 129.504 30.738 129.504 33.574C129.504 36.4099 131.421 39.3118 134.792 39.3118C135.386 39.321 135.974 39.2075 136.514 38.9793C137.054 38.7512 137.533 38.4142 137.916 37.9928V37.9928V38.9711H141.146V28.2868H137.916L137.963 29.2871ZM135.597 36.6188C134.938 36.72 134.261 36.6308 133.658 36.3633C133.055 36.0958 132.554 35.6628 132.225 35.1229C131.895 34.5829 131.751 33.9619 131.813 33.3437C131.875 32.7255 132.14 32.1399 132.572 31.6659C133.003 31.1919 133.581 30.8524 134.227 30.6932C134.873 30.534 135.556 30.5627 136.184 30.7756C136.812 30.9884 137.354 31.375 137.738 31.8833C138.122 32.3916 138.328 32.9971 138.33 33.6179C138.362 33.9868 138.316 34.3581 138.194 34.7103C138.071 35.0626 137.876 35.389 137.617 35.6708C137.359 35.9526 137.043 36.1843 136.689 36.3526C136.334 36.521 135.947 36.6226 135.55 36.6517L135.597 36.6188Z" fill="#0668B8"/>
<path d="M146.836 20.5488H143.559V38.9934H146.836V20.5488Z" fill="#0668B8"/>
<path d="M160.169 29.2875C159.784 28.8656 159.303 28.5277 158.761 28.2979C158.219 28.068 157.63 27.9518 157.034 27.9574C153.733 27.9574 151.793 30.7604 151.793 33.5964C151.793 36.4323 153.71 39.3342 157.081 39.3342C157.673 39.3471 158.259 39.2328 158.795 39.0001C159.33 38.7675 159.801 38.4228 160.169 37.9932V37.9932V38.9935H163.447V20.5488H160.169V29.2875ZM157.803 36.6412C157.044 36.5198 156.356 36.1532 155.86 35.6061C155.364 35.0591 155.092 34.3667 155.092 33.6513C155.092 32.9359 155.364 32.2436 155.86 31.6965C156.356 31.1494 157.044 30.7828 157.803 30.6615C158.562 30.7828 159.25 31.1494 159.746 31.6965C160.243 32.2436 160.515 32.9359 160.515 33.6513C160.515 34.3667 160.243 35.0591 159.746 35.6061C159.25 36.1532 158.562 36.5198 157.803 36.6412V36.6412Z" fill="#0668B8"/>
<path d="M175.999 33.783C175.999 30.5624 174.307 27.9683 170.545 27.9683C166.783 27.9683 164.973 30.5184 164.973 33.7611C164.973 37.0037 167.15 39.345 170.711 39.345C171.847 39.391 172.968 39.0949 173.909 38.5007C174.849 37.9064 175.557 37.046 175.928 36.0474L172.911 35.5857C172.749 36.0092 172.452 36.3763 172.058 36.6377C171.665 36.8991 171.194 37.0422 170.711 37.0477C168.995 37.0477 168.439 35.5198 168.439 34.1678H175.999V33.783ZM168.534 32.2551C168.532 31.6978 168.759 31.1607 169.167 30.7526C169.576 30.3445 170.136 30.0958 170.734 30.0567C171.329 30.101 171.883 30.3521 172.287 30.7597C172.69 31.1672 172.913 31.7013 172.911 32.2551H168.534Z" fill="#0668B8"/>
<path d="M57.2751 50.5237C57.2082 52.7154 58.0801 54.8422 59.6993 56.4373C61.3186 58.0324 63.5529 58.9654 65.9118 59.0315C67.3123 58.9893 68.684 58.6509 69.9226 58.0422V54.2389C69.4353 54.7651 68.8354 55.1912 68.1612 55.4902C67.487 55.7892 66.7532 55.9545 66.0064 55.9757C62.8002 55.9757 60.8362 53.2167 60.8362 50.4797C60.8362 47.7427 62.7292 44.8188 66.0301 44.8188C66.7763 44.8253 67.5118 44.9843 68.1845 45.2845C68.8572 45.5846 69.4506 46.0185 69.9226 46.5555V42.7303C68.7154 42.1119 67.3612 41.7832 65.9828 41.774C60.8126 41.752 57.2751 45.863 57.2751 50.5237Z" fill="#0668B8"/>
<path d="M75.5409 47.9082H72.2637V58.5924H75.5409V47.9082Z" fill="#0668B8"/>
<path d="M73.9092 41.6206C73.5222 41.6185 73.1431 41.7233 72.8203 41.9217C72.4974 42.1202 72.2454 42.4033 72.0962 42.7352C71.947 43.067 71.9073 43.4326 71.9822 43.7854C72.0572 44.1383 72.2434 44.4624 72.5171 44.7168C72.7908 44.9711 73.1397 45.144 73.5195 45.2137C73.8993 45.2833 74.2928 45.2464 74.6499 45.1078C75.0071 44.9692 75.3119 44.735 75.5255 44.4351C75.7391 44.1351 75.8519 43.783 75.8496 43.4233C75.8464 42.9461 75.641 42.4893 75.2778 42.1518C74.9146 41.8144 74.4229 41.6235 73.9092 41.6206V41.6206Z" fill="#0668B8"/>
<path d="M82.8186 47.5562C79.1036 47.5562 77.2461 50.1063 77.2461 53.349C77.2461 56.5916 79.423 58.9439 82.9842 58.9439C84.1202 58.9899 85.2418 58.6938 86.182 58.0995C87.1222 57.5053 87.8306 56.6449 88.2017 55.6463L85.1848 55.1846C85.0228 55.6081 84.725 55.9752 84.3315 56.2366C83.9381 56.498 83.4679 56.6411 82.9842 56.6466C81.2805 56.6466 80.7126 55.1187 80.7126 53.7776H88.2727V53.4039C88.2372 50.1723 86.5572 47.5562 82.8186 47.5562ZM80.8073 51.8431C80.8058 51.2857 81.0322 50.7486 81.4408 50.3405C81.8493 49.9324 82.4094 49.6837 83.0079 49.6446C83.6021 49.6889 84.1564 49.94 84.56 50.3476C84.9636 50.7551 85.1867 51.2892 85.1848 51.8431H80.8073Z" fill="#0668B8"/>
<path d="M96.0928 47.5561C95.5133 47.5235 94.9345 47.6285 94.4108 47.8612C93.8872 48.0939 93.4359 48.4466 93.0995 48.8861V48.8861V47.9079H89.8223V58.5921H93.0995V53.3049C93.0995 52.0189 93.0995 50.0073 95.0635 50.0073C97.0274 50.0073 96.8381 51.6671 96.8381 52.9422V58.6031H100.115V52.0738C100.068 49.5896 99.1807 47.5561 96.0928 47.5561Z" fill="#0668B8"/>
<path d="M101.607 53.2827C101.583 54.0099 101.715 54.7343 101.995 55.4138C102.275 56.0932 102.698 56.7143 103.238 57.2409C103.779 57.7675 104.426 58.1891 105.143 58.4814C105.86 58.7737 106.633 58.9308 107.416 58.9436C108.404 58.9576 109.379 58.7302 110.243 58.284V55.3492C109.961 55.6613 109.61 55.914 109.215 56.0902C108.819 56.2665 108.387 56.3624 107.948 56.3714C107.529 56.3682 107.114 56.2846 106.731 56.1258C106.348 55.9671 106.004 55.7366 105.72 55.4488C105.437 55.161 105.221 54.8221 105.085 54.4532C104.95 54.0842 104.897 53.6933 104.931 53.3047C104.894 52.9187 104.94 52.5297 105.066 52.1603C105.192 51.7909 105.396 51.4485 105.665 51.1529C105.935 50.8573 106.265 50.6145 106.637 50.4385C107.008 50.2626 107.414 50.157 107.83 50.128C108.281 50.1395 108.724 50.2383 109.132 50.4181C109.539 50.5979 109.902 50.8548 110.196 51.1722V48.2373C109.39 47.7846 108.464 47.5486 107.522 47.5558C106.724 47.5552 105.934 47.7046 105.2 47.9951C104.465 48.2857 103.802 48.7113 103.249 49.2463C102.696 49.7814 102.266 50.4148 101.984 51.1085C101.701 51.8022 101.573 52.5417 101.607 53.2827Z" fill="#0668B8"/>
<path d="M114.087 41.6206C113.7 41.6185 113.321 41.7233 112.998 41.9217C112.675 42.1202 112.423 42.4033 112.274 42.7352C112.125 43.067 112.085 43.4326 112.16 43.7854C112.235 44.1383 112.421 44.4624 112.695 44.7168C112.969 44.9711 113.317 45.144 113.697 45.2137C114.077 45.2833 114.471 45.2464 114.828 45.1078C115.185 44.9692 115.49 44.735 115.703 44.4351C115.917 44.1351 116.03 43.783 116.027 43.4233C116.024 42.9461 115.819 42.4893 115.456 42.1518C115.092 41.8144 114.601 41.6235 114.087 41.6206V41.6206Z" fill="#0668B8"/>
<path d="M115.721 47.9082H112.443V58.5924H115.721V47.9082Z" fill="#0668B8"/>
<path d="M125.848 48.9082C125.449 48.4829 124.956 48.1422 124.403 47.9089C123.849 47.6757 123.249 47.5554 122.642 47.5562C119.341 47.5562 117.4 50.3701 117.4 53.1951C117.4 56.02 119.317 58.9439 122.689 58.9439C123.281 58.9517 123.868 58.8363 124.407 58.6062C124.945 58.3761 125.421 58.037 125.801 57.6139V57.6139V58.5922H129.03V47.9079H125.801L125.848 48.9082ZM123.482 56.2399C122.825 56.3364 122.153 56.2439 121.555 55.9747C120.957 55.7056 120.461 55.2727 120.136 54.7344C119.811 54.196 119.671 53.578 119.734 52.9635C119.798 52.3489 120.063 51.7672 120.494 51.2968C120.924 50.8263 121.499 50.4895 122.142 50.3318C122.784 50.174 123.463 50.2028 124.088 50.4144C124.712 50.6259 125.252 51.01 125.634 51.515C126.016 52.02 126.223 52.6216 126.226 53.239C126.255 53.6065 126.206 53.9756 126.082 54.3253C125.957 54.675 125.759 54.9985 125.5 55.2772C125.241 55.5559 124.925 55.7844 124.57 55.9496C124.216 56.1148 123.83 56.2134 123.434 56.2399H123.482Z" fill="#0668B8"/>
<path d="M136.91 52.0849C135.727 51.6123 134.544 51.3924 134.544 50.612C134.559 50.3583 134.68 50.1201 134.881 49.9478C135.082 49.7755 135.347 49.6825 135.621 49.6887C136.278 49.7238 136.896 49.9912 137.348 50.4361L138.756 48.6664C137.687 47.9282 136.384 47.5415 135.053 47.5672C134.563 47.5545 134.076 47.636 133.623 47.8065C133.169 47.977 132.758 48.2329 132.416 48.5581C132.073 48.8833 131.807 49.2707 131.634 49.6961C131.461 50.1214 131.384 50.5755 131.409 51.0297C131.399 51.6693 131.619 52.2937 132.035 52.8035C132.451 53.3134 133.038 53.6795 133.704 53.8436C134.887 54.2943 135.987 54.5141 135.987 55.4485C135.997 55.6071 135.969 55.7657 135.906 55.9135C135.843 56.0612 135.747 56.1945 135.623 56.3042C135.499 56.4139 135.351 56.4974 135.19 56.5489C135.028 56.6004 134.856 56.6188 134.686 56.6026C134.209 56.5637 133.746 56.4332 133.327 56.2194C132.907 56.0056 132.54 55.7131 132.249 55.3605L130.746 57.1632C131.239 57.7203 131.859 58.1697 132.56 58.4794C133.262 58.789 134.028 58.9514 134.804 58.9549C135.37 58.9972 135.94 58.9308 136.477 58.7599C137.014 58.589 137.508 58.3173 137.927 57.9617C138.347 57.606 138.683 57.174 138.915 56.6925C139.147 56.211 139.27 55.6902 139.276 55.1627C139.303 54.479 139.085 53.8063 138.657 53.2496C138.229 52.6929 137.615 52.2834 136.91 52.0849V52.0849Z" fill="#0668B8"/>
<path d="M39.9064 51.3262C40.8125 51.7326 41.7908 51.9821 42.7932 52.0627C43.1718 52.1176 43.6687 52.0627 44.1893 51.3592L44.3076 51.1833C46.1533 49.0618 46.9223 43.4889 47.0524 42.5216L48.7798 42.3567C48.8055 42.3559 48.8306 42.3495 48.8532 42.338C48.8758 42.3266 48.8952 42.3104 48.9099 42.2908C48.9213 42.2704 48.9273 42.2478 48.9273 42.2248C48.9273 42.2019 48.9213 42.1792 48.9099 42.1589L46.5437 28.5947C46.9867 27.8644 47.2758 27.0623 47.3955 26.2314H48.7679C48.8015 26.2317 48.8344 26.2237 48.8636 26.2083C48.8927 26.1928 48.9168 26.1705 48.9336 26.1435C49.0227 25.9878 49.077 25.817 49.0933 25.6413C49.1096 25.4657 49.0874 25.2888 49.0282 25.1212C48.8272 24.7106 48.5377 24.3426 48.1775 24.0401C47.8173 23.7376 47.3941 23.507 46.9341 23.3625C46.6502 21.8126 42.7696 2.31278 26.1231 0.0374359C25.5912 -0.0268303 25.0514 -0.0082524 24.5259 0.0923994C23.8983 0.161818 23.3019 0.385703 22.7986 0.740924L22.6921 0.795888L22.5383 0.894812C21.0713 1.85112 18.847 3.89563 15.8892 8.31442C10.932 15.723 13.523 25.9017 14.3157 28.4188C14.3157 28.4188 10.7663 31.7164 12.7303 33.695C11.4193 34.2722 10.3742 35.2666 9.78435 36.498C9.10997 38.3336 10.7782 39.8835 6.50712 41.3345C6.50712 41.3345 4.94541 42.0599 5.77359 44.72C6.60177 47.3801 3.17074 46.8525 2.22425 47.7758C1.27776 48.6991 4.04625 51.8318 0.0828176 53.2718H3.85695C7.82038 51.8208 5.04006 48.6771 5.99839 47.7758C6.95671 46.8744 10.3641 47.3801 9.54773 44.72C8.73138 42.0599 10.2813 41.3345 10.2813 41.3345C14.5405 39.8835 12.8841 38.3336 13.5585 36.498C14.1431 35.2643 15.184 34.266 16.4926 33.684C16.1668 33.3878 15.9513 33.0027 15.8774 32.5848V32.6618C17.012 32.3186 18.1125 31.8846 19.1664 31.3647C18.9445 31.7418 18.8592 32.1752 18.9231 32.6009C18.9871 33.0265 19.1968 33.4217 19.5214 33.728C18.2145 34.298 17.1668 35.2793 16.5636 36.498C15.8892 38.3336 17.5574 39.8835 13.2864 41.3345C13.2864 41.3345 11.7247 42.0599 12.5647 44.72C13.4047 47.3801 9.94999 46.8525 9.01533 47.7758C8.08067 48.6991 10.9438 51.7549 6.98037 53.2058H9.03899C13.0024 51.7549 10.1393 48.6881 11.0858 47.7758C12.0323 46.8634 15.4515 47.3801 14.6351 44.72C13.8188 42.0599 15.3805 41.3784 15.3805 41.3784C19.6515 39.9275 17.9833 38.3776 18.6695 36.5419C19.2448 35.2918 20.2868 34.2769 21.6037 33.684C20.4205 32.5848 21.1067 31.0679 21.8758 30.0017C23.1319 29.3518 24.4461 28.8039 25.8037 28.3639C25.8769 28.6794 25.9798 28.9884 26.1113 29.2872C26.1113 29.2872 22.633 31.7054 24.6324 33.684C23.3239 34.2644 22.2798 35.2578 21.6865 36.487C21.0121 38.3226 22.6803 39.8725 18.4092 41.3235C18.4092 41.3235 16.8475 42.0489 17.6875 44.709C18.5276 47.3691 15.0847 46.8415 14.1382 47.7648C13.1917 48.6881 16.0667 51.7439 12.1033 53.1948H14.1974C18.1608 51.7439 15.2977 48.6771 16.2442 47.7648C17.1906 46.8524 20.6098 47.3691 19.7935 44.709C18.9771 42.0489 20.5152 41.3235 20.5152 41.3235C24.7862 39.8725 23.118 38.3226 23.8042 36.487C24.3824 35.263 25.4096 34.2696 26.7029 33.684C24.6916 31.7054 28.1818 28.6167 28.1818 28.6167L28.0989 27.8582C28.8506 27.7539 29.6113 27.7171 30.3705 27.7483C30.4176 28.2679 30.5126 28.7827 30.6545 29.2872C30.6545 29.2872 27.1761 31.7054 29.1756 33.684C27.8646 34.2612 26.8195 35.2556 26.2296 36.487C25.5553 38.3226 27.2234 39.8725 22.9524 41.3235C22.9524 41.3235 21.3907 42.0489 22.2189 44.709C23.0471 47.3691 19.616 46.8415 18.6695 47.7648C17.723 48.6881 20.5862 51.7439 16.6346 53.1948H16.8239V53.2828H15.203L15.7591 58.4161L0 61.3179L0.0709839 61.6697L17.2025 58.5699H17.3089C17.4652 59.1186 17.6669 59.6551 17.9123 60.1748L17.9952 60.3397L18.3383 60.1858L18.2554 60.0209C17.7761 58.9665 17.4498 57.8576 17.2853 56.7233C17.1611 55.5794 17.1611 54.4267 17.2853 53.2828H17.1906V53.2058H18.6695C22.6211 51.7549 19.7698 48.6881 20.7045 47.7758C21.6391 46.8634 25.082 47.3801 24.2538 44.72C23.4256 42.0599 24.9874 41.3345 24.9874 41.3345C29.2584 39.8835 27.5902 38.3336 28.2646 36.498C28.858 35.2587 29.9123 34.2596 31.2342 33.684C29.3767 31.8483 33.1272 28.6936 33.6832 28.243L34.0737 28.3529L33.2455 30.7491L34.4286 30.6832C34.4286 30.6832 35.0675 28.4848 37.1261 28.7266C37.1088 28.7691 37.1088 28.816 37.1261 28.8585C37.3391 29.1113 42.2963 35.135 46.1769 35.8165H46.2479C47.0022 37.3846 47.6464 38.9964 48.1764 40.642L48.3893 41.8401C46.9456 41.7056 45.491 41.7056 44.0473 41.8401C43.8225 42.0929 45.4434 42.1589 45.7983 42.6315C46.1533 43.1042 45.6918 45.2256 44.8045 45.2586C43.9172 45.2916 43.089 45.2586 42.947 45.9291C42.8051 46.5996 43.302 46.4128 44.3431 45.6543C45.3842 44.8959 45.1713 47.7428 44.7217 47.7208C44.4961 47.6902 44.2836 47.6036 44.1066 47.4701C43.9295 47.3366 43.7946 47.1612 43.716 46.9624C43.5859 46.6436 43.0417 46.9624 43.8344 47.9516C44.3904 48.6331 44.0591 50.0841 43.302 51.0184C41.2197 51.8208 37.2444 49.6334 35.3159 48.3034C35.6494 48.9924 36.1817 49.5821 36.854 50.0072C38.5813 53.6675 34.0855 63.1976 34.0855 63.1976L36.085 62.8458L36.2151 62.7139C36.8477 62.0066 37.3368 61.1984 37.6585 60.3287L51.2998 64L51.4063 63.6592L37.8005 59.9989C38.8258 57.1841 39.5317 54.2774 39.9064 51.3262V51.3262ZM37.8596 29.0894C38.6707 29.3278 39.4616 29.6217 40.2259 29.9687C40.3915 32.1671 43.9763 33.0575 44.5916 33.2004C45.1603 33.8701 45.6262 34.6099 45.9758 35.3988C42.8879 34.6183 39.0427 30.4634 37.8596 29.0894ZM40.6045 30.1886L41.1014 30.4524C42.2057 31.09 43.2159 31.8585 44.1065 32.7387C43.0417 32.3869 40.9239 31.5735 40.6281 30.1556L40.6045 30.1886ZM39.8118 28.243C36.9013 27.4186 35.0793 27.8692 34.4168 29.6279H34.121C34.6771 27.9901 34.5114 27.8033 34.4523 27.7373C34.3931 27.6714 30.0984 25.0223 20.1839 29.518C15.5343 13.2279 23.4138 4.65409 27.7204 1.4664C42.8642 5.37956 45.9048 24.2419 45.9048 24.2419C47.9398 25.8137 45.4907 29.3202 45.4907 29.3202L46.3544 33.0904C44.451 31.169 42.2547 29.5173 39.8354 28.188L39.8118 28.243Z" fill="#0668B8"/>
</svg>
