<svg width="179" height="242" viewBox="0 0 179 242" fill="none" xmlns="http://www.w3.org/2000/svg">
<path d="M26.281 170.603L0 239.737H13.85L19.5263 225.558H42.9408L48.1345 239.737H62.1548L36.6117 170.603H26.281ZM23.1591 214.811L30.5665 190.339H30.7652L39.2796 214.811H23.1591Z" fill="white"/>
<path d="M111.227 217.675H111.028L75.5516 170.603H66.0723V239.737H79.2128V193.997H79.383L114.888 241.069H124.367V172.389H111.227V217.675Z" fill="white"/>
<path d="M164.156 183.108C167.001 183.148 169.804 183.808 172.367 185.043C174.931 186.277 177.194 188.055 178.999 190.254V174.544C174.393 171.996 169.222 170.641 163.957 170.603C144.09 170.603 130.723 187.617 130.723 206.616C130.723 225.19 144.743 241.523 163.702 241.523C169.035 241.345 174.261 239.979 178.999 237.525V221.872C177.139 224.028 174.853 225.776 172.283 227.006C169.714 228.236 166.918 228.921 164.071 229.018C151.81 229.018 144.204 217.675 144.204 206.332C144.204 194.989 151.469 183.108 164.156 183.108Z" fill="white"/>
<path d="M32.1 159.146L73.1959 151.149H73.4513C73.8261 152.565 74.31 153.949 74.8987 155.29L75.0974 155.715L75.9205 155.318L75.7218 154.893C74.5719 152.173 73.7893 149.312 73.3945 146.386C73.0967 143.434 73.0967 140.461 73.3945 137.51H73.1675V137.311H76.7152C86.1945 133.568 79.3546 125.657 81.5967 123.133C83.8388 120.609 92.0978 122.14 90.1111 115.278C88.1244 108.416 91.8707 106.544 91.8707 106.544C102.116 102.801 98.1145 98.8027 99.7322 94.0671C101.147 90.8903 103.654 88.3251 106.799 86.8361C102.343 82.1005 111.34 73.962 112.674 72.6576L113.611 72.9412L111.624 79.0946H114.462C114.462 79.0946 115.995 73.4232 120.933 74.0471C120.908 74.1003 120.895 74.1584 120.895 74.2172C120.895 74.2761 120.908 74.3342 120.933 74.3874C121.415 75.0396 133.307 90.5792 142.616 92.3373H142.787C144.596 96.3827 146.141 100.541 147.413 104.786L147.923 107.877C144.46 107.53 140.971 107.53 137.508 107.877C136.968 108.529 140.857 108.699 141.708 109.919C142.559 111.138 141.453 116.611 139.324 116.696C137.195 116.781 135.209 116.696 134.868 118.426C134.528 120.155 135.72 119.673 138.217 117.717C140.715 115.76 140.204 123.105 139.125 123.048C138.586 122.963 138.079 122.738 137.655 122.394C137.232 122.05 136.907 121.601 136.713 121.091C136.401 120.269 135.095 121.091 136.997 123.643C138.331 125.401 137.536 129.145 135.72 131.555C130.725 133.625 121.188 127.982 116.562 124.551C117.371 126.323 118.646 127.842 120.252 128.946C124.396 138.389 113.611 162.974 113.611 162.974L118.407 162.067L118.719 161.727C120.237 159.902 121.41 157.817 122.182 155.573L154.905 165.044L155.161 164.137L123.09 154.808C125.381 147.537 126.913 140.048 127.659 132.462C129.833 133.511 132.18 134.154 134.584 134.362C135.493 134.362 136.685 134.362 137.933 132.547L138.217 132.094C142.645 126.621 144.518 112.244 144.802 109.72L148.945 109.323C149.007 109.321 149.067 109.304 149.121 109.275C149.176 109.245 149.222 109.204 149.257 109.153C149.285 109.1 149.299 109.042 149.299 108.983C149.299 108.924 149.285 108.865 149.257 108.813L143.581 73.8202C144.644 71.9362 145.337 69.8671 145.625 67.7235H148.917C148.997 67.7242 149.076 67.7036 149.146 67.6638C149.216 67.6239 149.274 67.5662 149.314 67.4967C149.528 67.0951 149.658 66.6544 149.697 66.2012C149.736 65.748 149.683 65.2916 149.541 64.8595C149.059 63.8001 148.364 62.8509 147.5 62.0705C146.636 61.2901 145.621 60.6951 144.518 60.3224C143.723 56.239 134.442 6.01894 94.4818 0.149065C93.2124 -0.0496883 91.9197 -0.0496883 90.6503 0.149065C89.1495 0.365078 87.7257 0.949667 86.5066 1.85047H86.2512L85.8823 2.10569C82.363 4.57274 77.0273 9.84712 69.932 21.2466C58.0403 40.3591 64.2558 66.6176 66.1574 73.1113C66.1574 73.1113 57.643 81.6184 62.3543 86.7226C59.2094 88.2116 56.7023 90.7769 55.2873 93.9536C53.6696 98.6892 57.6714 102.688 47.4258 106.431C47.4258 106.431 43.6795 108.302 45.6662 115.165C47.6528 122.027 39.4223 120.666 37.1518 123.019C34.8813 125.373 41.5225 133.512 32.0148 137.198H41.0684C50.5761 133.455 43.9065 125.345 46.2054 123.019C48.5043 120.694 56.6781 122.027 54.7198 115.165C52.7615 108.302 56.4794 106.431 56.4794 106.431C66.6966 102.688 62.7232 98.6892 64.3409 93.9536C65.7559 90.7769 68.263 88.2116 71.4079 86.7226C70.6248 85.9596 70.1074 84.9657 69.932 83.8869V84.1138C72.6493 83.2162 75.2882 82.0971 77.822 80.7677C77.2896 81.7405 77.085 82.8587 77.2384 83.9568C77.3917 85.0548 77.8949 86.0744 78.6735 86.8644C75.5345 88.3617 73.0299 90.9244 71.6065 94.0954C69.9888 98.831 73.9905 102.829 63.7449 106.572C63.7449 106.572 59.9987 108.444 62.0137 115.306C64.0288 122.169 55.7415 120.808 53.4994 123.161C51.2573 125.515 58.1255 133.455 48.6178 137.34H53.5561C63.0638 133.597 56.1956 125.685 58.4661 123.161C60.7366 120.637 68.9387 122.169 66.9804 115.306C65.0221 108.444 68.7117 106.572 68.7117 106.572C78.9573 102.829 74.9555 98.831 76.6016 94.0954C78.0096 90.9235 80.5059 88.3589 83.6402 86.8644C80.8021 84.0287 82.4481 80.1155 84.2929 77.3365C87.3256 75.7183 90.4866 74.3525 93.7439 73.2531C93.9193 74.0672 94.1663 74.8643 94.4818 75.6351C94.4818 75.6351 86.1377 81.8736 90.9342 86.9778C87.7952 88.4751 85.2905 91.0378 83.8672 94.2088C82.2495 98.9444 86.2512 102.943 76.0056 106.686C76.0056 106.686 72.2593 108.557 74.2743 115.42C76.2894 122.282 68.0305 120.921 65.76 123.275C63.4895 125.628 70.3861 133.568 60.8784 137.453H65.8168C75.3245 133.71 68.4562 125.798 70.7267 123.275C72.9972 120.751 81.1993 122.282 79.241 115.42C77.2827 108.557 80.9723 106.686 80.9723 106.686C91.2179 102.943 87.2162 98.9444 88.8623 94.2088C90.2773 91.0321 92.7843 88.4668 95.9292 86.9778C91.1044 81.8736 99.4768 73.9053 99.4768 73.9053L99.2781 71.9487C101.081 71.6795 102.906 71.5846 104.727 71.6651C104.84 73.0055 105.068 74.3337 105.408 75.6351C105.408 75.6351 97.0644 81.8736 101.861 86.9778C98.684 88.4503 96.1449 91.0175 94.7088 94.2088C93.0911 98.9444 97.0929 102.943 86.8473 106.686C86.8473 106.686 83.1009 108.557 85.0876 115.42C87.0742 122.282 78.8437 120.921 76.5732 123.275C74.3027 125.628 81.171 133.568 71.6917 137.453H72.1457V137.68H68.2575L69.5915 150.923L31.9297 158.324L32.1 159.146ZM122.721 75.0963C124.667 75.7115 126.564 76.4698 128.397 77.3649C128.795 83.0362 137.394 85.3331 138.87 85.7018C140.245 87.4224 141.363 89.3326 142.191 91.3732C134.726 89.3598 125.559 78.6409 122.721 75.0963ZM129.305 77.932L130.497 78.6126C133.147 80.2574 135.57 82.2402 137.706 84.5108C135.095 83.575 130.015 81.505 129.305 77.8469V77.932ZM80.3195 76.0888C69.1657 34.1206 88.0676 12.0022 98.3983 3.77874C134.726 13.8738 142.02 62.5342 142.02 62.5342C146.902 66.5892 141.027 75.6351 141.027 75.6351L143.127 85.3615C138.522 80.4443 133.225 76.2222 127.404 72.8278C120.422 70.701 116.051 71.8636 114.462 76.4007H113.753C115.086 72.1756 114.689 71.6935 114.547 71.5233C114.405 71.3532 104.103 64.5475 80.3195 76.0888Z" fill="white"/>
</svg>
