<svg width="164" height="35" viewBox="0 0 164 35" fill="none" xmlns="http://www.w3.org/2000/svg">
<path fill-rule="evenodd" clip-rule="evenodd" d="M106.068 0V34.9278H128.644V30.9365H121.685V0H106.068ZM62.9026 0H37.0597V34.9278H62.9026V30.9365H54.0989V19.2466H62.9026V15.2535H54.0989V3.99137H62.9026V0V0ZM0 0V3.99137H6.95839V35H22.5767V3.99137H29.5342V0H0ZM133.33 34.9278L141.991 0H155.196L164 34.9278H147.954L142.772 14.1137L140.003 25.5193H145.61L146.961 30.9365H138.582L137.589 34.9278H133.33V34.9278ZM71.4932 34.9278H86.2594C98.6842 34.9278 99.5362 24.0222 95.9159 18.7467L90.2365 10.3353C89.2415 8.83823 89.2415 6.7004 89.6684 5.9875C90.0953 5.27459 90.7335 3.99137 93.4317 3.99137H97.3351V0H82.5672C70.1441 0 69.2912 10.9056 72.9124 16.1802L78.5918 24.5916C79.5859 26.0887 79.5859 28.2274 79.1598 28.9403C78.7338 29.6532 78.0957 30.9365 75.3966 30.9365H71.4923V34.9278H71.4932V34.9278Z" fill="black"/>
</svg>
